<svg width="196" height="153" viewBox="0 0 196 153" fill="none" xmlns="http://www.w3.org/2000/svg">
<rect width="196" height="153" fill="white"/>
<g id="Paint-Rollers 1" clip-path="url(#clip0_0_1)">
<g id="Group">
<g id="handle">
<path id="Vector" d="M84.825 65.7082V80.5858C84.825 82.6929 86.5332 84.401 88.6402 84.401H188.33C190.437 84.401 192.145 82.6929 192.145 80.5858V65.7082C192.145 63.6011 190.437 61.893 188.33 61.893L88.6402 61.893C86.5332 61.893 84.825 63.6011 84.825 65.7082Z" fill="url(#paint0_linear_0_1)"/>
<g id="Vector_2" filter="url(#filter0_f_0_1)">
<path d="M91.9488 77.1235V60.7562C122.71 58.0884 152.289 58.7475 183.052 60.7191C185.574 66.4299 184.695 71.5885 183.214 77.0124C152.452 78.9292 122.713 79.5637 91.949 77.1236L91.9488 77.1235Z" fill="#666666"/>
</g>
<g id="Vector_3" filter="url(#filter1_f_0_1)">
<path d="M96.4307 83.1052C96.0813 83.1052 96.9785 78.2231 96.9785 73.3385C96.9785 68.4396 95.8259 63.9796 96.3523 62.5612C96.5696 61.9755 98.1163 63.1681 97.8378 73.2464C97.7043 78.0772 97.7806 83.1052 96.4307 83.1052H96.4307Z" fill="black"/>
</g>
<g id="Vector_4" filter="url(#filter2_f_0_1)">
<path d="M97.6804 73.2562V71.9009C99.3751 73.5077 103.8 73.1325 107.846 73.7404C104.454 74.0002 100.96 74.4949 97.6804 73.2562V73.2562Z" fill="#FFCC00"/>
</g>
<g id="Vector_5" opacity="0.55833" filter="url(#filter3_f_0_1)">
<path d="M97.7296 65.4796V67.7722C105.088 64.7458 139.493 63.1227 167.217 64.8653C141.119 61.1247 112.974 62.4015 97.7296 65.4796V65.4796Z" fill="#C87137"/>
</g>
<g id="Vector_6" opacity="0.52083" filter="url(#filter4_f_0_1)">
<path d="M184.73 73.1653V71.9009C177.484 73.3999 158.562 73.0499 141.263 73.617C155.768 73.8594 170.705 74.3209 184.73 73.1653V73.1653Z" fill="#FFCC00"/>
</g>
<g id="Vector_7" opacity="0.81667" filter="url(#filter5_f_0_1)">
<path d="M96.8605 81.8848V79.5922C101.878 80.2256 114.979 81.2675 126.958 82.7038C116.925 83.0657 106.892 82.6081 96.8605 81.8847V81.8848Z" fill="#C87137"/>
</g>
<g id="Vector_8" filter="url(#filter6_f_0_1)">
<path d="M184.73 74.1934V71.9008C177.347 74.6187 158.07 73.9842 140.443 75.0124C155.221 75.4519 170.44 76.2887 184.73 74.1933V74.1934Z" fill="#C87137"/>
</g>
<g id="Vector_9" filter="url(#filter7_f_0_1)">
<path d="M97.7296 66.9659V67.9769C103.267 66.6423 128.541 64.698 149.403 65.4665C129.766 63.817 109.2 65.6086 97.7296 66.966V66.9659Z" fill="#FFCC00"/>
</g>
<path id="Vector_10" d="M96.685 84.526V61.931C125.923 58.2482 154.036 59.158 183.274 61.8798C185.671 69.7635 184.836 76.8848 183.428 84.3728C154.19 87.019 125.923 87.895 96.6856 84.5264L96.685 84.526Z" fill="url(#paint1_linear_0_1)"/>
<g id="Vector_11" filter="url(#filter8_f_0_1)">
<path d="M160.108 81.7956L160.234 79.6272C153.123 81.8587 134.98 80.3722 118.305 80.5346C132.215 81.6297 146.52 83.1207 160.108 81.7956V81.7956Z" fill="#FFCC00"/>
</g>
<g id="Vector_12" filter="url(#filter9_f_0_1)">
<path d="M88.2996 64.0164C88.649 64.0164 87.5983 67.667 87.5983 72.6885C87.5983 80.7772 90.7142 81.3181 90.6818 82.8732C90.6692 83.4752 85.9996 83.0878 86.3807 72.7305C86.5654 67.7117 86.9498 64.0164 88.2997 64.0164H88.2996Z" fill="white"/>
</g>
</g>
<g id="bend">
<path id="Vector_13" d="M23.225 143.283C23.225 148.691 28.211 152.685 33.8401 152.685H53.935C59.5645 152.685 64.545 148.691 64.545 143.283V86.194C64.545 81.8279 65.4528 79.3332 66.7225 77.9573C67.9922 76.5814 69.9205 75.8804 73.1604 75.8804L84.8294 75.8686L84.8235 70.7562L73.1604 70.768H73.1544C69.1123 70.7689 65.4572 71.7892 62.9654 74.4899C60.472 77.1919 59.4328 81.1264 59.4328 86.1939L59.4328 143.283C59.4328 145.464 57.2321 147.573 53.9358 147.573H33.8407C30.5444 147.573 28.3377 145.464 28.3377 143.283L28.3377 7.26287H23.2253L23.2253 143.283L23.225 143.283Z" fill="black"/>
<g id="Vector_14" filter="url(#filter10_f_0_1)">
<path d="M31.0121 136.056C31.0121 141.02 35.9981 144.686 41.6275 144.686H61.7213C67.3508 144.686 72.3307 141.02 72.3307 136.056V83.6583C72.3307 79.6511 73.2385 77.3614 74.5083 76.0985C75.778 74.8356 77.7062 74.1922 80.9462 74.1922L92.6149 74.1814L92.609 69.4891L80.9462 69.4998H80.9403C76.8982 69.5016 73.243 70.4371 70.751 72.9159C68.2576 75.3958 67.2185 79.007 67.2185 83.6582V136.056C67.2185 138.058 65.0177 139.993 61.7215 139.993H41.6276C38.3314 139.993 36.1248 138.058 36.1248 136.056L36.1248 62.5149H31.0123L31.0123 136.056L31.0121 136.056Z" fill="#CCCCCC"/>
</g>
<g id="Vector_15" filter="url(#filter11_f_0_1)">
<path d="M23.9079 8.3981C23.9529 53.3498 23.8759 98.3091 23.9494 143.263C24.3799 147.688 28.9344 150.785 33.2216 150.472C40.3384 150.547 47.4653 150.57 54.5765 150.428C58.6262 149.956 62.5135 146.453 62.2179 142.186C62.2563 124.144 62.1068 106.098 62.2694 88.0544C62.3361 84.4586 61.9242 80.5485 63.9848 77.3798C65.2755 75.0453 67.9541 74.0247 70.4863 73.8064C74.9629 73.5828 80.7718 73.7218 84.8754 73.5987L84.8846 71.5691L70.8381 71.7192C69.4498 71.734 68.0884 72.0833 66.7479 72.504C63.1935 73.8784 60.8544 77.3953 60.4994 81.1194C59.6353 86.5979 60.4209 92.1822 60.1213 97.7053C60.0584 113.058 60.2915 128.427 59.9846 143.77C59.1124 147.197 55.1931 148.859 51.8958 148.43C44.8311 148.279 37.729 148.767 30.6886 148.149C27.7216 147.411 25.4193 144.333 26.0021 141.238C25.9903 96.8882 26.0258 52.4913 25.9844 8.17209C25.3463 8.28334 24.4305 7.80413 23.9135 8.20168C23.8931 8.2642 23.8994 8.33306 23.9076 8.39693L23.9079 8.3981Z" fill="white"/>
</g>
</g>
<g id="roller">
<g id="Vector_16" filter="url(#filter12_f_0_1)">
<path d="M11.941 17.2519L11.941 134.338C11.941 139.013 18.5583 142.803 26.7211 142.803H37.558C45.7208 142.803 52.3381 139.013 52.3381 134.338L52.3381 17.2519C52.3381 12.5766 45.7208 8.78645 37.558 8.78645H26.7211C18.5583 8.78645 11.941 12.5766 11.941 17.2519Z" fill="#B3B3B3"/>
</g>
<path id="Vector_17" d="M0.275055 11.9806L0.275055 140.567C0.275055 145.702 8.19332 149.864 17.961 149.864H30.928C40.6957 149.864 48.614 145.702 48.614 140.567L48.614 11.9806C48.614 6.84622 40.6957 2.68399 30.928 2.68399H17.961C8.19332 2.68399 0.275055 6.84622 0.275055 11.9806Z" fill="url(#paint2_linear_0_1)"/>
</g>
</g>
</g>
<defs>
<filter id="filter0_f_0_1" x="84.3149" y="51.3563" width="107.965" height="34.9913" filterUnits="userSpaceOnUse" color-interpolation-filters="sRGB">
<feFlood flood-opacity="0" result="BackgroundImageFix"/>
<feBlend mode="normal" in="SourceGraphic" in2="BackgroundImageFix" result="shape"/>
<feGaussianBlur stdDeviation="3.81695" result="effect1_foregroundBlur_0_1"/>
</filter>
<filter id="filter1_f_0_1" x="94.7777" y="61.0017" width="4.5304" height="23.5403" filterUnits="userSpaceOnUse" color-interpolation-filters="sRGB">
<feFlood flood-opacity="0" result="BackgroundImageFix"/>
<feBlend mode="normal" in="SourceGraphic" in2="BackgroundImageFix" result="shape"/>
<feGaussianBlur stdDeviation="0.71843" result="effect1_foregroundBlur_0_1"/>
</filter>
<filter id="filter2_f_0_1" x="96.5943" y="70.8148" width="12.3381" height="4.33145" filterUnits="userSpaceOnUse" color-interpolation-filters="sRGB">
<feFlood flood-opacity="0" result="BackgroundImageFix"/>
<feBlend mode="normal" in="SourceGraphic" in2="BackgroundImageFix" result="shape"/>
<feGaussianBlur stdDeviation="0.543023" result="effect1_foregroundBlur_0_1"/>
</filter>
<filter id="filter3_f_0_1" x="96.6582" y="61.4959" width="71.6305" height="7.34775" filterUnits="userSpaceOnUse" color-interpolation-filters="sRGB">
<feFlood flood-opacity="0" result="BackgroundImageFix"/>
<feBlend mode="normal" in="SourceGraphic" in2="BackgroundImageFix" result="shape"/>
<feGaussianBlur stdDeviation="0.535707" result="effect1_foregroundBlur_0_1"/>
</filter>
<filter id="filter4_f_0_1" x="140.87" y="71.5079" width="44.2531" height="2.80047" filterUnits="userSpaceOnUse" color-interpolation-filters="sRGB">
<feFlood flood-opacity="0" result="BackgroundImageFix"/>
<feBlend mode="normal" in="SourceGraphic" in2="BackgroundImageFix" result="shape"/>
<feGaussianBlur stdDeviation="0.196475" result="effect1_foregroundBlur_0_1"/>
</filter>
<filter id="filter5_f_0_1" x="96.0408" y="78.7725" width="31.7367" height="4.8777" filterUnits="userSpaceOnUse" color-interpolation-filters="sRGB">
<feFlood flood-opacity="0" result="BackgroundImageFix"/>
<feBlend mode="normal" in="SourceGraphic" in2="BackgroundImageFix" result="shape"/>
<feGaussianBlur stdDeviation="0.409867" result="effect1_foregroundBlur_0_1"/>
</filter>
<filter id="filter6_f_0_1" x="140.05" y="71.5078" width="45.073" height="4.43856" filterUnits="userSpaceOnUse" color-interpolation-filters="sRGB">
<feFlood flood-opacity="0" result="BackgroundImageFix"/>
<feBlend mode="normal" in="SourceGraphic" in2="BackgroundImageFix" result="shape"/>
<feGaussianBlur stdDeviation="0.196475" result="effect1_foregroundBlur_0_1"/>
</filter>
<filter id="filter7_f_0_1" x="96.7181" y="63.7935" width="53.6966" height="5.19494" filterUnits="userSpaceOnUse" color-interpolation-filters="sRGB">
<feFlood flood-opacity="0" result="BackgroundImageFix"/>
<feBlend mode="normal" in="SourceGraphic" in2="BackgroundImageFix" result="shape"/>
<feGaussianBlur stdDeviation="0.505746" result="effect1_foregroundBlur_0_1"/>
</filter>
<filter id="filter8_f_0_1" x="115.702" y="77.0238" width="47.1355" height="7.89652" filterUnits="userSpaceOnUse" color-interpolation-filters="sRGB">
<feFlood flood-opacity="0" result="BackgroundImageFix"/>
<feBlend mode="normal" in="SourceGraphic" in2="BackgroundImageFix" result="shape"/>
<feGaussianBlur stdDeviation="1.3017" result="effect1_foregroundBlur_0_1"/>
</filter>
<filter id="filter9_f_0_1" x="84.9017" y="62.5596" width="7.23719" height="21.9476" filterUnits="userSpaceOnUse" color-interpolation-filters="sRGB">
<feFlood flood-opacity="0" result="BackgroundImageFix"/>
<feBlend mode="normal" in="SourceGraphic" in2="BackgroundImageFix" result="shape"/>
<feGaussianBlur stdDeviation="0.728426" result="effect1_foregroundBlur_0_1"/>
</filter>
<filter id="filter10_f_0_1" x="26.5413" y="58.0441" width="70.5444" height="91.1125" filterUnits="userSpaceOnUse" color-interpolation-filters="sRGB">
<feFlood flood-opacity="0" result="BackgroundImageFix"/>
<feBlend mode="normal" in="SourceGraphic" in2="BackgroundImageFix" result="shape"/>
<feGaussianBlur stdDeviation="2.23541" result="effect1_foregroundBlur_0_1"/>
</filter>
<filter id="filter11_f_0_1" x="22.6633" y="6.80451" width="63.4578" height="144.964" filterUnits="userSpaceOnUse" color-interpolation-filters="sRGB">
<feFlood flood-opacity="0" result="BackgroundImageFix"/>
<feBlend mode="normal" in="SourceGraphic" in2="BackgroundImageFix" result="shape"/>
<feGaussianBlur stdDeviation="0.618232" result="effect1_foregroundBlur_0_1"/>
</filter>
<filter id="filter12_f_0_1" x="5.65004" y="2.49547" width="52.979" height="146.599" filterUnits="userSpaceOnUse" color-interpolation-filters="sRGB">
<feFlood flood-opacity="0" result="BackgroundImageFix"/>
<feBlend mode="normal" in="SourceGraphic" in2="BackgroundImageFix" result="shape"/>
<feGaussianBlur stdDeviation="3.14549" result="effect1_foregroundBlur_0_1"/>
</filter>
<linearGradient id="paint0_linear_0_1" x1="138.479" y1="84.4631" x2="138.479" y2="61.991" gradientUnits="userSpaceOnUse">
<stop stop-color="#2C2F33"/>
<stop offset="0.024" stop-color="#959799"/>
<stop offset="0.048" stop-color="white"/>
<stop offset="0.11406" stop-color="#2D2D2D"/>
<stop offset="0.21069" stop-color="#ADADAE"/>
<stop offset="0.28078" stop-color="#898989"/>
<stop offset="0.40167" stop-color="white"/>
<stop offset="0.64231" stop-color="white"/>
<stop offset="0.86118"/>
<stop offset="0.94329" stop-color="white"/>
<stop offset="1"/>
</linearGradient>
<linearGradient id="paint1_linear_0_1" x1="140.736" y1="86.7216" x2="140.736" y2="59.4935" gradientUnits="userSpaceOnUse">
<stop stop-color="#FFBD55"/>
<stop offset="0.3" stop-color="#CD7B44"/>
<stop offset="0.54966" stop-color="#D19829"/>
<stop offset="0.79931"/>
<stop offset="1" stop-color="#FFC155"/>
</linearGradient>
<linearGradient id="paint2_linear_0_1" x1="0.467827" y1="63.1562" x2="48.1255" y2="63.1562" gradientUnits="userSpaceOnUse">
<stop stop-color="white"/>
<stop offset="0.15" stop-color="#F8F8D5"/>
<stop offset="0.57519" stop-color="#A29E89"/>
<stop offset="0.80602" stop-color="#BFB69A"/>
<stop offset="0.91598" stop-color="#EEEEBE"/>
<stop offset="1" stop-color="white"/>
</linearGradient>
<clipPath id="clip0_0_1">
<rect width="151.78" height="195.59" fill="white" transform="translate(0.0950012 152.685) rotate(-90)"/>
</clipPath>
</defs>
</svg>
